<svg xmlns="http://www.w3.org/2000/svg" version="1" width="512" height="512"><g><rect width="512" height="512" x="0" y="-0" style="fill:#000066;stroke-width:1pt"/><g><path d="M0 0 0 28.3 307.1 250 345.7 250 345.7 221.7 38.6 0 0 0 zM345.7 0 345.7 28.3 38.6 250 0 250 0 221.7 307.1 0 345.7 0 z" style="fill:#ffffff;stroke-width:1pt" /><path d="M144 0 144 250 201.6 250 201.6 0 144 0 zM0 83.3 0 166.7 345.7 166.7 345.7 83.3 0 83.3 z" style="fill:#ffffff;stroke-width:1pt" /><path d="m0 100 0 50 345.7 0 0 -50 -345.7 0 zm155.6 -100 0 250 34.6 0 0 -250 -34.6 0 z" style="fill:#cc0000;stroke-width:1pt" /><path d="M0 250 115.2 166.7 141.2 166.7 25.9 250 0 250 zM0 0 115.2 83.3 89.3 83.3 0 18.3 0 0 zm204.5 83.3 115.2 -83.3 L345.7 0 230.5 83.3 204.5 83.3 zM345.7 250 230.5 166.7 256.4 166.7 345.7 231.7 345.7 250 z" style="fill:#cc0000;stroke-width:1pt" /></g><polygon transform="matrix(7.6726747,0,0,7.6726747,-121.31484,66.419658)" points="23,39.4 28.3,41.4 30,36 30,36 31.7,41.4 37,39.4 33.9,44.1 38.8,47 33.1,47.5 33.9,53.1 30,49 26.1,53.1 26.9,47.5 21.2,47 26.1,44.1" style="fill:#ffffff;fill-rule:evenodd;stroke-width:1pt"/><g transform="matrix(6.9999103,0,0,6.9999103,-255.42775,119.74311)"><polygon points="94.2,51 91.5,51.2 91.9,53.9 90,51.9 88.1,53.9 88.5,51.2 85.8,51 88.1,49.6 86.6,47.3 89.2,48.3 90,45.7 90,45.7 90.8,48.3 93.4,47.3 91.9,49.6" style="fill:#ffffff;fill-rule:evenodd;stroke-width:1pt"/><polygon points="94.2,11 91.5,11.2 91.9,13.9 90,11.9 88.1,13.9 88.5,11.2 85.8,11 88.1,9.6 86.6,7.3 89.2,8.3 90,5.7 90,5.7 90.8,8.3 93.4,7.3 91.9,9.6" style="fill:#ffffff;fill-rule:evenodd;stroke-width:1pt"/><polygon points="79.2,27.2 76.5,27.4 76.9,30.1 75,28.2 73.1,30.1 73.5,27.4 70.8,27.2 73.1,25.8 71.6,23.6 74.2,24.5 75,22 75,22 75.8,24.5 78.4,23.6 76.9,25.8" style="fill:#ffffff;fill-rule:evenodd;stroke-width:1pt"/><polygon points="107.5,23.2 104.8,23.4 105.2,26.1 103.3,24.2 101.5,26.1 101.8,23.4 99.2,23.2 101.5,21.8 100,19.6 102.5,20.5 103.3,18 103.3,18 104.2,20.5 106.7,19.6 105.2,21.8" style="fill:#ffffff;fill-rule:evenodd;stroke-width:1pt"/><polygon points="96,33.6 94.5,34.5 94.9,32.8 93.6,31.7 95.3,31.6 96,30 96,30 96.7,31.6 98.4,31.7 97.1,32.8 97.5,34.5" style="fill:#ffffff;fill-rule:evenodd;stroke-width:1pt"/></g></g></svg>