<svg xmlns="http://www.w3.org/2000/svg" version="1" width="512" height="512"><g><path fill="#229e45" d="M0 0h512v512H0z"/><path d="M261.357 405.395L491.233 256.2 259.97 106.605 29.338 256.56l232.02 148.835z" fill="#f8e509" /><path d="M361.512 255.932c0 53.604-43.54 97.058-97.247 97.058s-97.246-43.454-97.246-97.058c0-53.604 43.538-97.06 97.245-97.06 53.708 0 97.247 43.456 97.247 97.06z" fill="#2b49a3" /><path d="M355.11 290.938c1.483-3.876 3.395-9.722 4.41-15.087-51.65-45.373-109.233-68.617-181.99-63.835-2.61 5.002-4.697 10.236-6.458 15.9 86.204-8.223 149.397 29.943 184.04 63.023z" fill="#fff" /></g></svg>