<svg xmlns="http://www.w3.org/2000/svg" width="512" height="512" fill="#28ff09"><g><g><path fill="#fff" d="M81.138 0h362.496v512H81.138z"/><path fill="#bf0a30" d="M-100.11 0H81.138v512H-100.11z"/><path fill="#bf0a30" d="M443.634 0h181.248v512H443.634z"/></g><path d="M135.312 247.413l-14.067 4.808 65.457 57.447c4.95 14.764-1.72 19.117-5.97 26.86l71.062-9.02-1.85 71.512 14.717-.424-3.21-70.918 71.13 8.433c-4.4-9.296-8.32-14.233-4.246-29.098l65.412-54.425-11.447-4.144c-9.36-7.222 4.043-34.784 6.065-52.177 0 0-38.195 13.134-40.698 6.262l-9.726-18.685-34.747 38.172c-3.797.91-5.414-.602-6.304-3.81l16.05-79.765-25.418 14.297c-2.128.91-4.256.124-5.658-2.356l-24.446-49.072-25.21 50.952c-1.9 1.825-3.802 2.037-5.38.795l-24.205-13.577 14.53 79.143c-1.156 3.143-3.924 4.027-7.18 2.326l-33.216-37.737c-4.345 6.96-7.29 18.335-13.033 20.884-5.743 2.386-24.98-4.823-37.873-7.638 4.406 15.895 18.177 42.302 9.462 50.957z" fill="#bf0a30"/></g></svg>