<svg xmlns="http://www.w3.org/2000/svg" version="1" width="512" height="512"><g><path fill="#f30" d="M0 0h512v512H0z"/><path d="M236.588 256.652l-64.594-46.125-64.277 46.578 23.906-75.69-64.16-46.74 79.378-.65 24.62-75.46 25.148 75.286 79.376.1-63.83 47.18 24.434 75.522z" fill="#ff0"/><path d="M390.835 93.387L377.998 75.49l-21.05 6.48L370 64.23l-12.667-18.02 20.907 6.935 13.22-17.616-.133 22.025 20.84 7.13-20.99 6.68-.342 22.022z" fill="#ff0"/><path d="M338.254 419.8l-14.644-16.45-20.255 8.654 11.12-19.012-14.488-16.59 21.52 4.7 11.298-18.905 2.178 21.918 21.473 4.905-20.172 8.844 1.97 21.937z" fill="#ff0"/><path d="M441.282 208.607l-7.132-20.837-22.026.135 17.615-13.223-6.936-20.906 18.02 12.667 17.738-13.056-6.478 21.05 17.898 12.838-22.022.343-6.678 20.99z" fill="#ff0"/><path d="M438.222 314.81l-18.014-12.672-17.744 13.05 6.485-21.05-17.895-12.842 22.024-.336 6.683-20.987 7.125 20.84 22.025-.127-17.62 13.216 6.93 20.908z" fill="#ff0"/></g></svg>