<svg xmlns="http://www.w3.org/2000/svg" width="512" height="512" viewBox="0 0 512 512"><path fill="#fff" d="M-128 168.23h768v171.884h-768V168.23z"/><path d="M-128 340.114h768V512h-768V340.114z"/><path fill="#f00" d="M-128 0h768v168.23h-768V0z"/><path fill="#D7B900" stroke="#fff" d="M247.758 257.455l4.43-.234 5.898 47.042-4.14 5.79-4.848-5.315-1.34-47.282zM238.87 257.507l4.43.17-.187 47.255-4.856 5.373-4.13-5.72 4.742-47.078zM307.004 212.09l4.872 86.812-9.745-6.945-4.868-79.866h9.742zM297.254 212.092l4.872 79.866-9.744-6.944-4.872-72.92 9.744-.002zM287.504 212.094l4.873 72.92-9.744-6.943-4.873-65.976h9.744zM277.755 212.095l4.872 65.975-9.744-6.943-4.87-59.03h9.743v-.002zM188.2 212.03l-4.34 86.812 8.682-6.945 4.34-79.866H188.2zM196.877 212.032l-4.34 79.866 8.68-6.945 4.342-72.92h-8.683zM205.553 212.033l-4.34 72.92 8.68-6.944 4.34-65.978h-8.68zM214.59 212.947l-4.34 65.976 8.682-6.944 4.34-59.03h-8.68l-.002-.003z"/><path fill="#fff" stroke="#D7B900" d="M187.494 212.06c-.265-.258 5.24-3.656 14.594-3.656 14.03 0 16.185 3.655 25.54 3.655h40.133c9.355 0 12.07-3.656 26.103-3.656 9.354 0 13.772 3.585 14.032 3.655 0 0-4.678-.184-14.032-.184s-13.016 7.652-22.453 7.492c-7.072.16-38.077 0-47.43 0s-12.537-7.31-21.892-7.31-14.86-.257-14.594 0zM308.427 306.268v4.404l4.836 4.404-4.836 4.404v4.405c-19.348 8.81-39.38 8.81-58.04 8.81s-38.692 0-62.876-8.81v-4.403l-4.834-4.403 4.836-4.404v-4.403c19.347 4.403 38.695 8.808 62.877 8.808 24.184 0 38.693-4.403 58.04-8.807l-.003-.005zM218.138 299.886l1.61 8.856 4.16-6.79 1.61 8.858 4.16-6.79 1.607 8.856c1.535-3.857 2.802-9.695 2.612-16.135-4.9-8.212-10.297-9.598-17.537-5.727-1.295 4.692-2.206 10.394-2.55 15.647l4.328-6.774zM219.49 291.644l1.61 8.857 4.16-6.79 1.608 8.858 4.16-6.79 1.608 8.857c1.532-3.858 2.8-9.695 2.61-16.134-4.898-8.214-10.296-9.6-17.537-5.73-1.297 4.692-2.207 10.395-2.55 15.647l4.328-6.775.002.002zM220.84 283.4l1.61 8.858 4.16-6.79 1.61 8.857 4.16-6.79 1.607 8.858c1.535-3.86 2.803-9.697 2.613-16.136-4.9-8.213-10.297-9.6-17.538-5.728-1.296 4.69-2.206 10.392-2.55 15.645l4.33-6.774zM222.6 273.227l1.608 8.857 4.16-6.79 1.61 8.856 4.16-6.79 1.608 8.858c1.533-3.856 2.8-9.693 2.61-16.134-4.898-8.213-10.296-9.6-17.536-5.728-1.296 4.69-2.206 10.393-2.55 15.646l4.33-6.775zM223.95 264.985l1.61 8.857 4.16-6.79 1.608 8.857 4.16-6.79 1.608 8.856c1.535-3.858 2.803-9.696 2.613-16.135-4.9-8.212-10.298-9.6-17.538-5.727-1.297 4.69-2.206 10.39-2.55 15.647l4.33-6.775zM225.302 256.743l1.61 8.856 4.16-6.79 1.61 8.857 4.16-6.79 1.607 8.857c1.534-3.858 2.8-9.696 2.61-16.135-4.898-8.214-10.296-9.6-17.536-5.73-1.295 4.693-2.206 10.394-2.55 15.648l4.328-6.775zM224.215 219.372s10.46-8.264 10.46-18.68h22.535c0 10.416 10.91 18.68 11.27 17.362-5.636 0-16.903-3.473-22.537-10.417-5.634 6.944-16.093 11.734-21.728 11.735zM220.485 215.718s14.62-11.51 14.62-21.927v-14.618c0-3.473 7.312-3.655 10.967-3.655 5.404 0 10.966.183 10.966 3.655v14.62c0 10.416 14.62 21.926 14.62 21.926-10.806 0-16.528-7.673-21.93-14.62 0 3.474 1.522 10.558-3.882 14.03-5.403-3.472-3.43-10.556-3.43-14.03-5.402 6.946-11.124 14.62-21.93 14.62zM228.74 173.955l13.288 4.2c-.992 2.16-1.984 4.322-6.414 2.922s-7.867-4.96-6.874-7.122zM238.597 174.91c4.43 1.417 3.437 3.58 2.444 5.74-6.642-2.126-10.08-5.705-17.715-5.67 1.095-2.385 1.984-4.322 8.628-2.196l6.644 2.126zM246.695 179.094c-.41.9-1.736 1.317-2.96.93-1.222-.386-1.88-1.43-1.47-2.33s1.736-1.315 2.96-.93 1.88 1.43 1.47 2.33z"/><path fill="#D7B900" stroke="#fff" d="M243.444 257.486h4.437l2.35 47.225-4.567 5.557-4.436-5.556 2.217-47.224z"/><path fill="#fff" stroke="#D7B900" d="M272.967 299.234l-1.954 8.833-4.415-6.864-1.95 8.834-4.415-6.865-1.95 8.834c-1.6-3.887-2.866-9.748-2.52-16.187 5.542-8.133 11.488-9.427 19.34-5.43 1.32 4.717 2.197 10.436 2.462 15.697l-4.6-6.854h.002zM271.66 290.966l-1.95 8.833-4.417-6.865-1.95 8.833-4.415-6.863-1.95 8.833c-1.6-3.886-2.864-9.747-2.52-16.187 5.544-8.132 11.49-9.425 19.342-5.43 1.32 4.717 2.196 10.437 2.46 15.697l-4.6-6.85zM270.354 282.697l-1.95 8.834-4.416-6.864-1.95 8.834-4.416-6.865-1.95 8.834c-1.6-3.888-2.866-9.75-2.52-16.188 5.543-8.132 11.488-9.426 19.34-5.43 1.32 4.718 2.197 10.437 2.462 15.698l-4.6-6.853zM268.643 272.487l-1.95 8.833-4.416-6.864-1.95 8.833-4.415-6.864-1.952 8.833c-1.598-3.885-2.863-9.746-2.518-16.186 5.542-8.133 11.488-9.427 19.34-5.43 1.32 4.717 2.196 10.436 2.46 15.697l-4.598-6.853zM267.338 264.22l-1.95 8.833-4.417-6.864-1.95 8.832-4.415-6.863-1.95 8.832c-1.6-3.886-2.866-9.748-2.52-16.187 5.542-8.132 11.488-9.426 19.34-5.428 1.322 4.714 2.197 10.434 2.46 15.697l-4.597-6.854zM266.03 255.95l-1.952 8.834-4.414-6.864-1.95 8.834-4.416-6.865-1.95 8.833c-1.6-3.887-2.866-9.748-2.52-16.187 5.542-8.132 11.488-9.426 19.34-5.43 1.32 4.717 2.197 10.437 2.46 15.698l-4.597-6.853zM218.88 219.186c0 38.197 9.037 34.725 27.107 48.615 18.07-13.89 27.106-10.417 27.106-48.614-9.035 0-18.07 0-27.106-3.472-9.035 3.472-18.07 3.472-27.106 3.472z"/><path fill="#D7B900" d="M220.968 220.695c0 35.08 8.398 31.89 25.193 44.646 16.797-12.754 25.195-9.565 25.195-44.644-8.398 0-16.796 0-25.193-3.19-8.397 3.19-16.794 3.19-25.192 3.19h-.002z"/><path fill="#fff" d="M236.985 221.154v36.56l9 5.313 9-5.312v-36.56c-3.21-.404-6.31-1.136-8.986-1.976-2.98.893-6.01 1.597-9.015 1.974z"/></svg>