<svg xmlns="http://www.w3.org/2000/svg" width="512" height="512" viewBox="0 0 512 512"><path fill="#c00" d="M.04 0h512v511.995H.04V0z"/><path fill="#ff3" d="M0 127.997h512.08V384H0V127.997z"/><path fill="#C8B100" d="M150.65 227.26h27.464v-7.2H150.65v7.2zM153.532 232.052c.17-.07.296-.078.508-.078h20.568c.203 0 .397.034.558.1-.702-.236-1.21-.875-1.21-1.628 0-.752.55-1.404 1.26-1.65-.16.053-.4.102-.595.102h-20.58c-.206 0-.405-.01-.575-.066l.11.017c.735.224 1.156.88 1.156 1.594 0 .69-.467 1.384-1.198 1.608M154.04 231.974h20.568c.697 0 1.26.433 1.26.963 0 .533-.563.966-1.26.966H154.04c-.697 0-1.262-.433-1.262-.966 0-.53.565-.963 1.262-.963M154.04 227.26h20.58c.695 0 1.263.368 1.263.815 0 .454-.568.823-1.262.823h-20.58c-.695 0-1.26-.37-1.26-.823 0-.447.565-.814 1.26-.814M153.532 336.22c.065.25.157.495.157.763 0 1.804-1.56 3.236-3.464 3.236h28.266c-1.905 0-3.462-1.437-3.462-3.24 0-.263.05-.513.118-.76-.164.056-.358.064-.542.064H154.04c-.166 0-.36-.02-.508-.066M154.04 334.35h20.568c.697 0 1.26.44 1.26.97 0 .532-.563.968-1.26.968H154.04c-.697 0-1.262-.436-1.262-.97 0-.53.565-.968 1.262-.968"/><path fill="#C8B100" d="M150.266 347.41h28.19v-7.19h-28.19v7.19z"/><path fill="#c00" d="M148.06 308.904c-2.79 1.61-4.68 3.26-4.375 4.082.153.758 1.04 1.322 2.306 2.162 1.994 1.387 3.206 3.862 2.257 5.006 1.65-1.33 2.694-3.316 2.694-5.526 0-2.312-1.1-4.396-2.88-5.726"/><path fill="#ccc" d="M154.303 333.188h20.032v-98.14h-20.032v98.14z"/><path fill="#c00" d="M194.795 271.756c-4.37-1.807-11.8-3.146-20.326-3.426-2.94.02-6.218.298-9.6.86-11.98 2-21.108 6.784-20.383 10.68.013.083.04.253.06.327 0 0-4.492-10.12-4.566-10.506-.8-4.32 9.326-9.636 22.624-11.853 4.173-.695 8.243-.967 11.778-.934 8.508 0 15.9 1.09 20.354 2.744l.055 12.11M154.27 284.075c-5.553-.398-9.346-1.882-9.78-4.205-.343-1.853 1.533-3.9 4.888-5.76 1.497.16 3.183.368 4.925.368l-.033 9.597M174.372 276.574c3.47.525 6.076 1.387 7.374 2.447l.116.214c.62 1.27-2.43 3.97-7.522 6.985l.032-9.646M141.828 303.006c-.528-1.585 4.89-4.757 12.545-7.566 3.498-1.252 6.385-2.556 9.966-4.135 10.63-4.7 18.486-10.096 17.52-12.064l-.106-.2c.57.46 1.446 10.15 1.446 10.15.97 1.804-6.22 7.12-16.01 11.812-3.133 1.496-9.75 3.94-12.874 5.036-5.586 1.94-11.14 5.593-10.632 6.95l-1.857-9.98"/><path fill="#C8B100" d="M334.436 227.26H361.9v-7.2h-27.466l.002 7.2zM359.018 232.052c-.172-.07-.303-.078-.51-.078h-20.564c-.203 0-.397.034-.568.1.707-.236 1.215-.875 1.215-1.628 0-.752-.554-1.404-1.266-1.65.17.053.4.102.604.102h20.582c.204 0 .4-.01.575-.066l-.115.017c-.732.224-1.152.88-1.152 1.594-.002.69.464 1.384 1.2 1.607M337.942 231.974h20.565c.692 0 1.256.433 1.256.963 0 .533-.562.966-1.257.966H337.94c-.697 0-1.264-.433-1.264-.966 0-.53.565-.963 1.264-.963M337.927 227.26h20.582c.69 0 1.254.368 1.254.815 0 .454-.562.823-1.257.823h-20.583c-.696 0-1.26-.37-1.26-.823 0-.447.562-.814 1.26-.814M359.013 336.22c-.062.25-.15.495-.15.763 0 1.804 1.557 3.236 3.456 3.236h-28.262c1.897 0 3.45-1.437 3.45-3.24 0-.263-.05-.513-.104-.76.152.056.35.064.537.064h20.567c.166 0 .36-.02.503-.066M337.942 334.35h20.565c.692 0 1.256.44 1.256.97 0 .532-.562.968-1.257.968H337.94c-.697 0-1.264-.436-1.264-.97 0-.528.565-.968 1.264-.968"/><path fill="#C8B100" d="M334.088 347.41h28.192v-7.19h-28.192v7.19z"/><path fill="#c00" d="M364.483 308.904c2.792 1.61 4.687 3.26 4.38 4.082-.152.758-1.038 1.322-2.306 2.162-1.99 1.387-3.21 3.862-2.26 5.006-1.646-1.33-2.686-3.316-2.686-5.526 0-2.312 1.097-4.396 2.87-5.726"/><path fill="#ccc" d="M338.21 333.188h20.03v-98.14h-20.03v98.14z"/><path fill="#c00" d="M317.75 271.756c4.374-1.807 11.805-3.146 20.33-3.426 2.938.02 6.214.298 9.598.86 11.98 2 21.104 6.784 20.377 10.68-.014.083-.036.253-.06.327 0 0 4.495-10.12 4.56-10.506.807-4.32-9.313-9.636-22.61-11.853-4.175-.695-8.25-.967-11.78-.934-8.51 0-15.904 1.09-20.357 2.744l-.056 12.11M358.277 284.075c5.556-.398 9.35-1.882 9.776-4.205.35-1.853-1.53-3.9-4.884-5.76-1.5.16-3.19.368-4.93.368l.037 9.597M338.178 276.574c-3.474.525-6.078 1.387-7.38 2.447l-.115.214c-.624 1.27 2.43 3.97 7.522 6.985l-.027-9.646M370.717 303.006c.526-1.585-4.89-4.757-12.545-7.566-3.498-1.252-6.387-2.556-9.967-4.135-10.633-4.7-18.488-10.096-17.52-12.064l.104-.2c-.56.46-1.44 10.15-1.44 10.15-.97 1.804 6.222 7.12 16 11.812 3.137 1.496 9.757 3.94 12.882 5.036 5.586 1.94 11.136 5.593 10.63 6.95l1.854-9.98"/><path stroke="#000" d="M225.353 189.924c0-3.292 5.342-3.29 5.342 0 0 3.288-5.342 3.288-5.342 0z" fill="none"/><path fill="#c00" d="M255.484 168.08c10.983 0 20 4.344 30.577 5.758 11.475 1.536 21.89.7 31.142 9.413l-1.933 1.72-.56 4.886c-4.44 5.085-8.944 9.112-14.213 13.33l-3.203.26-2.793 2.55c-13.255-1.554-25.416-4.528-38.748-4.53-13.37-.005-25.702 3.2-38.998 4.752l-2.667-2.77-3.208-.263c-5.27-4.218-9.77-8.243-14.213-13.33l-.55-4.884-1.942-1.72c8.442-7.913 18.2-8.265 28.892-9.166 11.203-.942 20.892-6.004 32.418-6.003"/><path fill="#C8B100" d="M256.107 217.633c-3.858-.005-39.692-.67-39.35-6.254-.168-9.38 78.878-9.31 78.683 0 .31 5.612-35.45 6.246-39.333 6.25M256.002 206.2c-12.923.025-26.274 1.1-38.685 4.924 3.31-1.565-3.256-6.635-3.356-6.916 26.953-7.962 57.382-7.962 84.334 0-.1.283-6.663 5.352-3.356 6.92-12.48-3.846-25.946-4.898-38.94-4.924M225.524 178.796l1.71 1.37 2.563-4.188c-3.124-1.912-5.085-5.462-4.62-9.15.576-11.397 19.12-11.407 25.932-6.704.07-.828.145-1.536.26-2.29-8.23-4.796-27.73-3.783-28.45 8.99-.368 3.688 1.176 7.322 3.964 9.74l-1.36 2.232M225.634 178.844c-7.576-5.654-6.164-15.07 1.623-19.7-5.56 4.465-5.824 12.692-.37 17.42l-1.253 2.28M197.02 183.07c-3.018-3.375-3.81-8.323-1.804-12.408 4.58-9.425 19.427-10.513 28.22-8.504-.522.57-.933 1.195-1.332 1.825-7.62-1.48-21.028-.72-24.866 7.605-1.847 3.835-.697 8.423 2.536 11.12l-3.243 5.298-1.74-1.382 2.23-3.55M200.34 165.318c-6.187 3.895-8.546 11.903-3.32 17.755l-1.97 3.194c-5.81-7.458-2.173-16.46 5.29-20.95M255.965 153.962c2.17 0 4.04 1.435 4.483 3.36.99 5.826.005 11.957 2.13 17.598l-6.616 6.327-6.686-6.328c2.135-5.64 1.137-11.775 2.135-17.6.44-1.926 2.385-3.36 4.55-3.36M286.355 178.796l-1.71 1.37-2.563-4.188c3.12-1.91 5.09-5.464 4.62-9.15-.56-11.402-19.13-11.4-25.935-6.704-.076-.828-.14-1.536-.266-2.29 8.235-4.797 27.73-3.784 28.46 8.99.303 3.713-1.145 7.294-3.97 9.74l1.365 2.232M286.245 178.844c7.577-5.654 6.167-15.062-1.616-19.7 5.55 4.468 5.815 12.696.358 17.42l1.257 2.28M314.866 183.07c3.013-3.382 3.794-8.318 1.803-12.408-4.59-9.422-19.428-10.513-28.23-8.504.528.57.937 1.195 1.337 1.825 7.613-1.482 21.028-.715 24.858 7.605 1.853 3.83.69 8.427-2.537 11.12l3.244 5.298 1.742-1.382-2.226-3.55M311.54 165.318c6.19 3.896 8.54 11.896 3.326 17.755l1.964 3.194c5.807-7.455 2.166-16.462-5.29-20.95"/><path fill="#ccc" d="M256.523 365.242c-16.12 0-32.1-3.952-45.532-10.525-9.9-4.904-16.465-14.795-16.465-26.11v-41.04H318.28v41.04c0 11.315-6.565 21.206-16.468 26.11-13.433 6.573-29.16 10.525-45.29 10.525"/><path fill="#ccc" d="M256.26 287.497h62.018v-68.66H256.26v68.66z"/><path fill="#c00" d="M256.307 328.557c0 16.22-13.742 29.364-30.86 29.364-17.126 0-31.007-13.145-31.007-29.36v-41.1h61.867v41.1"/><path fill="#C7B300" d="M207.956 352.79c1.933 1.026 4.588 2.735 7.425 3.42l-.18-70.2h-7.242v66.78h-.002zM194.34 328.004c.187 8.66 3.626 15.1 7.064 19.316v-60.97h-6.98l-.084 41.654z"/><path fill="#C7B500" d="M221.75 357.747c2.835.286 4.95.23 7.245 0V286.01h-7.246v71.737z"/><path fill="#C7B300" d="M235.365 356.21c2.837-.57 6.034-2.337 7.427-3.25v-66.95h-7.246l-.18 70.2z"/><path fill="#c00" d="M194.444 287.497h61.84v-68.66h-61.84v68.66z"/><path fill="#C7B300" d="M249.525 346.637c3.016-2.678 5.853-8.775 6.884-15.727l.18-44.9h-7.25l.185 60.627z"/><path fill="#c00" d="M318.337 287.458v41.1c0 16.218-13.9 29.363-31.024 29.363-17.12 0-31.004-13.145-31.004-29.36v-41.1l62.027-.002"/><path fill="#0076BC" d="M242.357 287.156c0-9.13 6.308-16.528 14.098-16.528 7.785 0 14.094 7.4 14.094 16.528 0 9.133-6.313 16.537-14.097 16.537-7.79 0-14.098-7.404-14.096-16.537"/></svg>