<svg xmlns="http://www.w3.org/2000/svg" version="1" width="512" height="512"><path fill="#0062da" d="M.293-3764.3h49.872v8.546H.293z"/><path fill="#0062da" d="M0-2800456.25h7472763v66033.414H0z"/><g><path fill="#fff" d="M-105.618 325.663h249.353V512h-249.353z"/><path fill="#0062da" d="M143.568 0h149.944v511.998H143.568z"/><path fill="#0062da" d="M-105.618 186.182H792.05v139.636h-897.668z"/><path fill="#fff" d="M-105.618.003h249.353V186.34h-249.353z"/><path fill="#fff" d="M293.346 325.664H792.05V512H293.346z"/><path fill="#fff" d="M293.346.002H792.05v186.336H293.346z"/><path fill="#fff" d="M-105.618 325.663h249.353V512h-249.353z"/><path fill="#0062da" d="M143.568 0h149.944v511.998H143.568z"/><path fill="#fff" d="M-105.618.003h249.353V186.34h-249.353z"/><path fill="#fff" d="M293.346 325.664H792.05V512H293.346z"/><path fill="#fff" d="M293.346.002H792.05v186.336H293.346z"/></g></svg>