<svg xmlns="http://www.w3.org/2000/svg" version="1" width="512" height="512"><g transform="matrix(1.0239998,0,0,1.0239998,-256,-2.39998e-6)"><g transform="scale(16.66667,16.66667)"><rect style="fill:#000066" x="0" width="60" height="30" y="0"/><g><path style="fill:#ffffff" d="M 0 0 0 3.4 53.3 30 60 30 60 26.6 6.7 0 0 0 z M 60 0 60 3.4 6.7 30 0 30 0 26.6 53.3 0 60 0 z" /><path style="fill:#ffffff" d="M 25 0 25 30 35 30 35 0 25 0 z M 0 10 0 20 60 20 60 10 0 10 z" /><path style="fill:#cc0000" d="m 0 12 0 6 60 0 0 -6 -60 0 z m 27 -12 0 30 6 0 0 -30 -6 0 z" /><path style="fill:#cc0000" d="M 0 30 20 20 24.5 20 4.5 30 0 30 z M 0 0 20 10 15.5 10 0 2.2 0 0 z m 35.5 10 20 -10 L 60 0 40 10 35.5 10 z M 60 30 40 20 44.5 20 60 27.8 60 30 z" /></g></g></g></svg>