<svg xmlns="http://www.w3.org/2000/svg" width="512" height="512"><g><path fill="#0061f3" d="M0 0h768.015v56.89H0z"/><path fill="#fff" d="M0 56.89h768.015v56.89H0z"/><path fill="#0061f3" d="M0 113.78h768.015v56.89H0z"/><path fill="#fff" d="M0 170.67h768.015v56.89H0z"/><path fill="#0061f3" d="M0 227.56h768.015v56.89H0z"/><path fill="#fff" d="M0 284.45h768.015v56.89H0z"/><path fill="#0061f3" d="M0 341.34h768.015v56.89H0z"/><path fill="#fff" d="M0 398.23h768.015v56.89H0z"/><path fill="#0061f3" d="M0 455.12h768.015v56.89H0z"/></g><g><path fill="#0061f3" d="M0 0h284.45v284.45H0z"/><g fill="#fff"><path d="M113.78 0h56.89v284.45h-56.89z"/><path d="M0 113.78h284.45v56.89H0z"/></g></g></svg>