<svg xmlns="http://www.w3.org/2000/svg" xmlns:xlink="http://www.w3.org/1999/xlink" width="512" height="512" viewBox="0 0 512 512"><g><path fill="#fff" d="M-248.622 144.703H750.14V326.2h-998.762V144.703z"/><path fill="#003E9F" d="M-247.712 308.96H752.602V511.8H-247.713V308.96z"/><path fill="#D61517" d="M-250-.002H751.93v170.08H-250V-.002z"/><path fill="#fff" stroke="#E5141D" stroke-width="4.324" d="M168.773 165.31c26.117-9.293 55.076-14.307 83.38-14.378 28.303-.072 57.165 4.37 85.69 14.59l21.228-42.832-14.92-25.996s-26.625 10.936-26.843 10.936c-.22 0-18.772-20.42-18.772-20.42l-23.826 14.397-22.376-17.112-21.045 16.847-24.57-14.2-17.92 21.297-26.863-11.488-14.382 25.758 21.218 42.6z"/><path fill="#00A7BD" stroke="#0084FD" d="M305.034 153.602l12.234-43.076 26.107-10.572 13.722 23.1-19.784 40.364c-11.34-4.542-17.417-6.49-32.28-9.816z"/><path d="M201.922 153.658l-11.383-42.32 17.125-21.018 24.37 14.07 4.113 44.485c-11.907.884-20.512 2.015-34.226 4.783z" fill="none"/><path fill="#00A7BD" d="M236.314 149.037l-4.178-46.17 20.69-17.038 21.666 17.035-3.756 46.244c-11.926-.664-20.443-.653-34.422-.073z"/><path fill="#00A7BD" stroke="#0084FD" d="M169.796 163.17l-19.285-40.796 12.888-22.52 26.718 11.63 11.29 42.09c-12.2 2.522-18.66 4.582-31.61 9.597z"/><path fill="#001070" stroke="#001071" d="M271.268 148.983l3.837-44.77 23.652-13.65 18.293 19.854-12.176 43.136c-11.813-2.413-18.554-3.446-33.606-4.57z"/><path d="M305.13 153.534l12.276-43.266 26.056-10.497 13.82 23.367-19.78 40.163c-11.187-4.227-17.585-6.486-32.37-9.767h-.003z" fill="none"/><path fill="#011171" stroke="#011171" d="M201.684 153.6l-11.27-42.287 17.35-20.95 24.252 13.884 4.035 44.8c-12.388.904-20.416 2.087-34.366 4.552z"/><path fill="#fff" stroke="#E5141D" stroke-width="4.324" d="M167.54 166.79h171.557v110.012c-4.36 42.844-45.536 74.87-83.162 74.625-40.614 1.773-85.53-31.475-88.768-74.992l.374-109.645z"/><path fill="#D61517" stroke="#E5141D" stroke-width="4.324" d="M171.122 170.94h164.435v105.78c-4.18 41.196-43.646 71.99-79.71 71.756-38.928 1.704-81.978-30.266-85.083-72.11l.358-105.427z"/><path fill="#fff" d="M269.932 171.17h31.683v34.39h-31.683zM204.568 171.17h31.682v34.39h-31.682zM171.513 206.695h32.107v33.563h-32.107zM237.513 206.695h31.366v33.563h-31.367zM302.562 206.695h32.32v33.563h-32.32zM269.932 241.29h31.683v34.08h-31.683zM204.568 241.29h31.682v34.08h-31.682zM237.513 276.402h31.366v34.08h-31.367z"/><path fill="#fff" stroke="#fff" d="M302.762 276.7l.008 33.477 19.29.025c8.8-12.857 11.815-25.383 12.643-33.496-.142 0-31.815-.014-31.94-.006zM270.127 311.815l.004 33.597c13.723-2.85 24.9-9.354 31.298-14.126l.002-19.484-31.303.013zM204.808 311.748l-.045 18.984c10.777 7.864 23.087 12.464 31.284 14.233l.005-33.203-31.244-.014zM171.574 276.654c1.023 13.154 6.625 25.355 12.646 33.605l19.21-.033.002-33.588-31.858.014z"/></g></svg>