<svg xmlns="http://www.w3.org/2000/svg" version="1" width="512" height="512"><g><path fill="#fff" d="M619.427 512H-112V0h731.427z"/><path fill="#00c" d="M619.427 115.226H-112V48h731.427z"/><path fill="#00c" d="M619.427 465.684H-112v-67.227h731.427z"/><path d="M136.43 190.78L246.55 382.316l112.484-190.752-222.607-.786z" fill="#00c"/><path d="M225.746 317.808l20.95 35.506 21.4-35.36-42.35-.146z" fill="#fff"/><path d="M136.023 320.578l110.123-191.535 112.484 190.75-222.607.785z" fill="#00c"/><path d="M225.746 191.607l20.95-35.505 21.4 35.36-42.35.145z" fill="#fff"/><path d="M181.967 271.112l-21.64 35.982 40.898-.127-19.258-35.855z" fill="#fff"/><path d="M160.704 204.61l41.225.29-19.835 36.262-21.39-36.55z" fill="#fff"/><path d="M311.94 271.518l20.828 35.576-41.71-.533 20.88-35.042z" fill="#fff"/><path d="M332.39 204.61l-41.224.29L311 241.162l21.39-36.55z" fill="#fff"/><path d="M218.122 204.57l-28.394 51.514 28.8 50.297 52.73 1.218 32.045-51.514-29.61-51.92-55.57.405z" fill="#fff"/></g></svg>