<svg xmlns="http://www.w3.org/2000/svg" width="512" height="512" viewBox="0 0 512 512"><path fill="#fff" d="M-128 0h768v512h-768V0z"/><path fill="#329203" d="M-128 341.102h767.48v170.55H-128v-170.55z"/><path fill="#E77300" d="M-128 0h768v170.666h-768V0z"/><ellipse fill="#08399C" cx="255.845" cy="255.932" rx="80.825" ry="80.825"/><path fill="#fff" d="M325.886 237.795c1.463 5.338 2.252 11.79 2.265 17.416-24.906.062-47.226-.088-71.87.88 24.574-5.066 45.58-9.256 69.606-18.295zM238.507 186.37c5.344-1.43 11.804-2.175 17.43-2.152-.102 24.908-.396 47.225.414 71.875-4.896-24.553-11.308-45.257-17.843-69.723zM256.914 184.132c5.536-.013 11.965.915 17.4 2.376-6.465 24.054-12.455 45.554-17.975 69.593 1.543-24.988.636-46.643.574-71.968zM275.473 186.728c5.352 1.417 11.32 3.974 16.197 6.79-12.462 21.568-23.803 40.79-35.343 62.588 7.946-23.742 12.663-44.898 19.146-69.378zM292.73 194.03c4.802 2.75 9.917 6.765 13.893 10.742-17.61 17.617-33.53 33.256-50.31 51.334 13.84-20.928 25.77-38.72 36.417-62.077zM307.438 205.46c3.937 3.893 7.843 9.082 10.67 13.95-21.542 12.505-40.946 23.533-61.806 36.694 18.75-16.672 34.847-30.803 51.136-50.645zM318.938 220.673c2.773 4.79 5.184 10.828 6.627 16.264-24.07 6.404-45.69 11.944-69.275 19.162 22.424-11.137 40.734-22.73 62.648-35.427.838 1.45-10.366 6.006 0 0zM186.635 273.888c-1.43-5.345-2.177-11.8-2.158-17.43 24.91.095 47.224.383 71.876-.437-24.604 4.916-45.638 8.978-69.718 17.868zM328.242 256.166c.052 5.537-.834 11.968-2.257 17.416-24.098-6.303-45.638-12.146-69.714-17.502 25.055 1.377 46.436 2.69 71.972.086zM325.768 274.762c-1.384 5.365-3.9 11.342-6.685 16.24-21.65-12.32-40.944-23.535-62.817-34.934 23.794 7.79 44.98 12.372 69.502 18.694zM318.56 292.1c-2.717 4.816-6.706 9.95-10.66 13.957-17.722-17.503-33.456-33.33-51.635-50 21.01 13.714 38.875 25.536 62.295 36.042zM307.103 306.99c-3.88 3.95-9.052 7.874-13.91 10.72-12.586-21.496-23.686-40.858-36.925-61.668 16.706 18.647 32.76 33.208 50.835 50.947zM292.053 318.476c-4.77 2.8-10.8 5.243-16.226 6.72-6.54-24.034-12.206-45.622-19.555-69.166 11.263 22.36 22.96 40.606 35.78 62.446zM274.63 325.61c-5.343 1.47-11.778 2.26-17.413 2.28-.08-24.906.052-47.23-.936-71.872 5.074 24.52 11.637 45.173 18.35 69.593zM255.87 327.98c-5.528.03-11.972-.89-17.406-2.338 6.413-24.067 12.36-45.58 17.828-69.63-1.49 24.992-.54 46.643-.422 71.968-1.675.01-.056-11.978 0 0zM237.31 325.426c-5.353-1.404-11.33-3.95-16.21-6.754 12.413-21.595 23.71-40.84 35.205-62.665-7.896 23.76-12.567 44.923-18.994 69.42zM219.98 318.13c-4.805-2.745-9.925-6.755-13.907-10.727 17.586-17.64 33.487-33.3 50.244-51.398-13.783 20.902-23.78 40.13-36.337 62.124zM205.11 306.566c-3.93-3.898-7.826-9.095-10.645-13.967 21.56-12.472 40.985-23.466 61.865-36.593-18.737 16.606-33.384 32.58-51.22 50.56-1.188-1.18 8.437-8.505 0 0zM193.68 291.415c-2.77-4.792-5.176-10.827-6.62-16.267 24.075-6.395 45.695-11.927 69.283-19.136-22.476 11.15-41.728 20.55-62.662 35.403zM221.234 193.266c4.802-2.753 10.847-5.125 16.295-6.55 6.287 24.102 11.726 45.75 18.828 69.37-11.026-22.48-22.533-40.846-35.124-62.82zM184.396 255.12c.013-5.535.97-11.96 2.458-17.388 24.023 6.578 45.495 12.67 69.508 18.3-25.037-1.664-46.4-3.222-71.966-.91zM187.04 236.717c1.43-5.348 4.003-11.312 6.832-16.18 21.535 12.518 40.727 23.91 62.495 35.507-23.774-8.026-44.026-15.008-69.328-19.327zM194.42 219.42c2.766-4.792 6.8-9.888 10.79-13.854 17.556 17.67 33.14 33.647 51.157 50.492-20.88-13.914-38.628-25.907-61.948-36.637zM206.292 204.375c3.93-3.89 9.173-7.744 14.068-10.513 12.265 21.678 23.076 41.205 36.005 62.208-16.43-18.892-32.265-33.69-50.073-51.695z"/></svg>