<svg xmlns="http://www.w3.org/2000/svg" version="1" width="512" height="512"><g><path fill="#fff" d="M610.61 511.56h-730.17v-512h730.17z"/><path transform="matrix(.687 0 0 .687 -88.735 -532.539)" d="M495.862 1147.964a163.792 163.792 0 1 1-327.583 0 163.792 163.792 0 1 1 327.582 0z" fill="#fff"/><path transform="matrix(.638 0 0 .645 -74.972 16.483)" d="M733.697 381.734a227.738 227.738 0 1 1-455.476 0 227.738 227.738 0 1 1 455.477 0z" fill="#c70000"/><path d="M-49.417 126.44l83.662-96.772 19.82 17.136-83.66 96.77z"/><path d="M-22.018 150.125l83.66-96.77L81.465 70.49l-83.66 96.77z"/><path d="M-49.417 126.44l83.662-96.772 19.82 17.136-83.66 96.77z"/><path d="M-49.417 126.44l83.662-96.772 19.82 17.136-83.66 96.77z"/><path d="M5.964 174.317l83.662-96.77 19.82 17.135-83.66 96.77z"/><path d="M-49.417 126.44l83.662-96.772 19.82 17.136-83.66 96.77z"/><path d="M-49.417 126.44l83.662-96.772 19.82 17.136-83.66 96.77z"/><path d="M459.416 29.64l83.003 97.336-19.937 17-83.004-97.335z"/><path d="M403.712 77.143l83.003 97.335-19.937 17-83.003-97.334z"/><path d="M417.555 133.19l78.602-67.812 14.64 16.953-83.995 75.52-9.247-24.66z" fill="#fff"/><path d="M514.226 372.008l-80.42 95.833-19.715-16.398 80.42-95.833z"/><path d="M431.857 53.142l83.003 97.335-19.936 17-83.004-97.334z"/><path d="M541.48 394.676l-80.42 95.833-19.715-16.4 80.42-95.832z"/><path d="M486.392 348.856l-80.42 95.833-19.715-16.4 80.42-95.833z"/><path d="M104.6 236.68c4.59 36.973 11.295 78.174 68.198 82.454 21.327 1.277 62.816-5.074 77.06-63.19 18.688-55.828 74.975-71.88 113.28-41.613 21.717 14.167 27.726 36.667 29.283 53.558-1.738 54.243-32.873 101.203-72.822 122.142-45.932 27.3-109.554 27.872-165.295-13.486C129.176 352.968 94.08 309.52 104.6 236.68z" fill="#3d5897"/><path d="M435.914 370.59l78.734 67.66-14.59 16.997-87.156-71.85 23.012-12.807z" fill="#fff"/><path d="M-1.885 357.198l83.003 97.335-19.936 17-83.004-97.335z"/><path d="M-16.188 437.247l78.602-67.814 14.642 16.954-83.997 75.52-9.248-24.66z" fill="#fff"/><path d="M25.674 333.696l83.003 97.336-19.936 17L5.74 350.698z"/><path d="M-30.03 381.198l83.003 97.336-19.937 17-83.003-97.335z"/></g></svg>