<svg xmlns="http://www.w3.org/2000/svg" width="512" height="512" viewBox="0 0 512 512"><path fill="#fff" d="M0 0h512v512H0V0z"/><path fill="#0B7226" d="M0 0h171.447v512H0V0z"/><path fill="#BC0000" d="M341.54 0H512v512H341.54V0z"/><path fill="#268728" d="M206.646 206.28c-3.268 2.83-11.656 7.315-11.342 12.04.272 4.1.038 10.254 4.86 11.814 6.486 2.097 7.592-1.21 9.862-6.216-1.53-.236-7.174 1.596-7.965-.602-1.38-3.835 8.16-2.595 7.667-5.694-14.693 7.56-1.243-5.86-3.08-11.342z"/><path fill="#BA4600" d="M206.975 210.84c.072 1.803.118 3.606.138 5.41-.017-.378-1.88-5.41-.138-5.41.083 2.05-.085 0 0 0z"/><path fill="#FFBA00" d="M213.87 219.81c-7.012 1.933-8.244 18.504 1.614 15.46-1.606-2.404-3.417-7.326.493-8.786 1.796-.67 8.786 2.412 7.387 3.792 1.63-3.536 4.552-3.042 7.275-4.227 2.088-.91 3.347-6.01 4.398-7.887-4.832-.993-19.53-6.02-21.168 1.647z"/><path fill="#fff" d="M289.225 311.417c3.03 1.617 2.917 6.18-.205 7.636-.14-2.935-2.354-3.932-4.85-4.54 1.34-1.6 3.024-2.632 5.055-3.096zM259.062 307.434c-3.383-.137-6.63 3.52-4.2 6.672 1.88-2.53 4.664-2.15 7.327-1.43-1.35-2.058-1.062-3.595-3.128-5.242zM261.47 313.294c-2.83 1.51-3.525 6.113-.26 7.636.137-2.936 2.354-3.933 4.85-4.54-1.164-1.58-2.694-2.613-4.59-3.096z"/><path fill="#F6AA00" d="M289.703 311.788c.133-5.08-5.73-1.832-8.038-3.522-2.977-1.972-4.67-5-7.894-6.615-2.834-1.422-4.236 4.258-7.433 5.317-1.748.396-3.425.14-5.028-.77-4.09-.476-1.486 4.19-2.06 6.764 3.182 1.82 2.873 1.185 5.377 4.297 3.496.95 5.745-3.676 9.306-4.65 5.275-1.02 6.187 3.053 9.768 3.045 2.4-.006 4.243-2.215 6.003-3.864z"/><path d="M270.77 307.547c-4.406 3.805-8.56 2.203-9.16 5.405" fill="none"/><path fill="#9C4314" d="M326.804 300.418c1.677 1.3 3.46-21.45 3.666-23.734.793-8.78 4.253-18.815.604-27.52 1.582.05 2.626-.67 3.132-2.163-6.097 2.26-10.034-15.44-11.828-18.888-3.022-5.808-7.678-10.775-12.66-14.95-4.578-3.837-11.56-5.35-6.73-11.3-5.54 2.773-12.804-1.838-17.687-4.115-8.388-3.91-17.143-7.165-26.562-6.61-4.922.49-16.032 4.072-16.044 9.983.022 3.226 3.73 3.606 6.086 4.034 5.426.985 6.065 4.66 6.698 9.414-1.327-1.827-6.65-4.368-3.723-6.633-4.536-2.63-16.61 1.267-16.308-6.232-1.196 1.418-2.216 2.953-3.062 4.602-.584-1.78-1.168-3.56-1.754-5.338-1.065 1.456-.84 8.214-3.15 7.626-1.75-.447-1.47-4.55-1.463-5.688-2.386 4.157-1.977 9.702-4.555 2.83.06 4.348-9.56 10.792-8.413 13.136 1.45 2.966 5.56 2.5 8.165 3.313 5.884 1.647 10.24-3.2 14.095 4.213-1.31 1.09-5.98 7.672-1.71 6.31-3.67 3.565-6.124 6.83-4.032 8.763-1.528-1.413-2.922 12.522-2.48 14.213 1.302 4.962.193 8.352 4.627 7.713 1.23 5.362 5.085 9.213 7.512 13.98-1.65-.45-3.297-.434-4.94.047.616 2.415 1.836 4.478 3.662 6.19-9.998 3.075-10.845 7.626-.56 9.144-2.102 7.256 10.253 1.784 10.253 1.995 0-.72 7.374 1.87 5.58-5.838 2.036 2.44 13.704 20.318 15.764 12.66 1.89 1.705 1.438 1.49 3.424-.486.935-2.237 3.02 1.757 3.204 1.88 1.16-1.02 1.71-2.326 1.656-3.924.3.888.85 1.534 1.65 1.94l1.21-2.583c.574 4.685 17.094 11.07 18.978 6.456 2.308.985 5.814 1.036 7.82-.738 2.14-1.894 5.603-.255 9.065-.872 7.057-1.258-5.256-8.31-6.753-9.398-6.77-4.925-13.475-9.95-20.388-14.676-6.622-4.525-7.54-4.49-9.47-12.114-.566-2.247-1.2-5.13-2.722-6.984-1.666-5.726 5.746.48 6.96.97 2.924 1.176 3.72.368 5.884 3.416.6.844 6.816 7.327 6.51 6.337-2.066-5.185-5-9.72-8.775-13.835 3.592 1.798 6.782 4.67 9.794 7.282 1.984 3.274 2.64 10.12 6.332 11.955.424.21-3.26-12.37-3.26-13.373 1.526 1.217 9.872 17.568 9.203 18.31 1.755-2.425-1.67-13.444-2.397-16.353 8.793 5.06 3.44 20.698 8.997 27.61-1.93-2.4-1.407-22.094-.37-25.812 1.47 7.164 1.37 22.993 6.37 28.02.36-3.392 1.62-31.823.5-32.063 4.372.934 2.574 32.7 4.394 37.878z"/><path d="M237.497 293.844c0-3.82 6.394-6.378 9.473-6.43" fill="none"/><path fill="#fff" d="M216.58 219.984c2.413-16.838 12.53 6.143 0 0 .302-2.106 0 0 0 0z"/><path fill="#238700" d="M183.363 251.34c3.265 3.068 8.33 2.244 6.673 8.704-2.528 9.86.432 10.61 5.695 17.614 4.15 4.632 4.013 16.766 13.69 13.51 1.07-.153 10.067-3.968 10.067-4.59 0-2.302-5.122-4.572-5.122-6.8 0 2.19-6.102 5.313-8.203 4.424-4.99-2.11-3.643-10.964-9.9-14.142-6.002-4.543.968-12.144-1.952-18.287-2.33-4.9-15.125-8.673-10.947-.433z"/><path d="M237.88 283.4c.04.037 2.526 1.336 3.816 1.394" fill="none"/><path fill="#FFBC00" d="M243.876 287.646c-4.447-2.98-12.65-5.216-16.458-.556 8.22 2.8 9.326 3.848 16.458.556z"/><path fill="#F7B200" d="M232.45 283.854c5.773-14.67-34.003-7.23-22.235 4.41 3.013 2.982 7.033-2.46 10.892.002 4.538 2.895 7.44-1.836 11.343-4.412z"/><path fill="#288800" d="M222.918 229.828c7.35 9.734-27.4 31.047-9.646 35.455 6.585 1.635 19.418-.824 17.222 10.628-1.702 8.874-11.88 7.71-9.103.256 1.405-3.768-8.944-2.626-11.33-3.272-7.74-2.097-12.39-9.66-9.608-17.524 1.886-5.332 17.473-16.272 16.274-20.75-.754-2.818-5.312-4.052-2.245-7.27 2.77-2.904 6.926-.418 8.438 2.478z"/><path fill="#9D4600" d="M213.646 228.233c6.32 2.325 8.24 7.19 7.93 13.802 6.215-6.733-2.224-21.9-7.93-13.802z"/><path fill="#9D4600" d="M208.003 261.053c-.965-.24-1.93-.478-2.896-.717.585 9.62 2.925 14.204 13.556 12.97 4.268-.496 2.733 1.718 1.812 4.225-1.13 3.08 2.31 3.68 3.59 6.683 5.722-4.006 10.33-12.388 2.575-17.24-5.743-2.872-15.477 1.423-18.637-5.92z"/><path d="M220.5 280.64c2.11-1.658 3.416 4.91 4.678 5.638" fill="none"/><path fill="#fff" d="M216.88 276.502c-1.677 2.662-.53 7.762 3.567 5.98-.38-2.8-.74-4.755 1.41-7.022-3.495.21-1.67-.615-4.977 1.042z"/><path d="M207.896 272.182c-2.176-3.58-2.61-7.646-2.734-11.73l2.91.707" fill="none"/></svg>