<svg xmlns="http://www.w3.org/2000/svg" version="1" width="512" height="512"><g><rect style="fill:#00006a" width="512" height="512" x="0" y="-0"/><g transform="matrix(1.0175708,0,0,0.95604785,-9.9033974e-4,-1.0435174)"><path transform="matrix(0.46237,0,0,0.474578,-29.82254,-137.2798)" style="fill:#ffffff" d="m 64.5 291.6 514.1 508.6 105.4 0 L 181 291.8 64.5 291.6 z"/><path transform="matrix(-0.461902,0,0,-0.476346,317.3934,383.4745)" style="fill:#ff0000" d="m 105.5 296 503.8 506.7 39.2 -0.6 -505.9 -506.1 -37.1 0 z"/><path transform="matrix(-0.46237,0,0,0.474578,316.2764,-137.2798)" style="fill:#ffffff" d="m 64.5 291.6 514.1 508.6 105.4 0 L 181 291.8 64.5 291.6 z"/><path transform="matrix(-0.461718,0,0,0.476346,317.3236,-139.9103)" style="fill:#ff0000" d="m 105.5 296 503.8 506.7 39.2 0 -505.9 -506.7 -37.1 0 z"/><rect style="fill:#ffffff" width="45.8" height="241.4" x="120.3" y="1.1"/><rect style="fill:#ffffff" width="286.4" height="48.3" x="0" y="97.6"/><rect style="fill:#ff0000" width="25.8" height="241.4" x="130.3" y="1.1"/><rect style="fill:#ff0000" width="286.4" height="24.1" x="0" y="109.7"/></g><g transform="matrix(0.8656228,0,0,0.8656228,-61.259702,103.94337)"><g transform="matrix(1.026601,0,0,1.032127,-9.9878156e-4,4.455906e-4)"><polygon d="m 519.06818,108.72801 -22.02531,-16.19344 -22.83816,15.02531 8.59468,-25.951362 -21.3473,-17.077307 27.33711,0.154617 9.64481,-25.579666 8.30058,26.04692 27.30812,1.268204 -22.20707,15.943265 z" points="519.1,106.7 497,90.5 474.2,105.6 482.8,79.6 461.5,62.5 488.8,62.7 498.4,37.1 506.7,63.2 534,64.4 511.8,80.4 519.1,106.7" style="fill:#ffffff" /><polygon d="m 511.20355,91.032508 -13.4698,-8.733191 -12.86977,9.595493 4.14336,-15.509251 -13.10283,-9.274702 16.03054,-0.852053 4.77177,-15.327575 5.76406,14.982654 16.05195,-0.19826 -12.46816,10.111842 z" transform="matrix(0.99883,0.04836373,-0.04836373,0.99883,4.035646,-21.99739)" points="511.2,91 497.7,82.3 484.9,91.9 489,76.4 475.9,67.1 491.9,66.3 496.7,50.9 502.5,65.9 518.5,65.7 506.1,75.8 511.2,91" style="fill:#ff0000" /></g><g transform="matrix(1.026601,0,0,1.032127,-86.795213,144.08306)"><polygon d="m 519.06818,108.72801 -22.02531,-16.19344 -22.83816,15.02531 8.59468,-25.951362 -21.3473,-17.077307 27.33711,0.154617 9.64481,-25.579666 8.30058,26.04692 27.30812,1.268204 -22.20707,15.943265 z" points="519.1,106.7 497,90.5 474.2,105.6 482.8,79.6 461.5,62.5 488.8,62.7 498.4,37.1 506.7,63.2 534,64.4 511.8,80.4 519.1,106.7" style="fill:#ffffff" /><polygon d="m 511.20355,91.032508 -13.4698,-8.733191 -12.86977,9.595493 4.14336,-15.509251 -13.10283,-9.274702 16.03054,-0.852053 4.77177,-15.327575 5.76406,14.982654 16.05195,-0.19826 -12.46816,10.111842 z" transform="matrix(0.99883,0.04836373,-0.04836373,0.99883,4.035646,-21.99739)" points="511.2,91 497.7,82.3 484.9,91.9 489,76.4 475.9,67.1 491.9,66.3 496.7,50.9 502.5,65.9 518.5,65.7 506.1,75.8 511.2,91" style="fill:#ff0000" /></g><g transform="matrix(1.026601,0,0,1.032127,90.830087,129.87779)"><polygon d="m 519.06818,108.72801 -22.02531,-16.19344 -22.83816,15.02531 8.59468,-25.951362 -21.3473,-17.077307 27.33711,0.154617 9.64481,-25.579666 8.30058,26.04692 27.30812,1.268204 -22.20707,15.943265 z" points="519.1,106.7 497,90.5 474.2,105.6 482.8,79.6 461.5,62.5 488.8,62.7 498.4,37.1 506.7,63.2 534,64.4 511.8,80.4 519.1,106.7" style="fill:#ffffff" /><polygon d="m 511.20355,91.032508 -13.4698,-8.733191 -12.86977,9.595493 4.14336,-15.509251 -13.10283,-9.274702 16.03054,-0.852053 4.77177,-15.327575 5.76406,14.982654 16.05195,-0.19826 -12.46816,10.111842 z" transform="matrix(0.99883,0.04836373,-0.04836373,0.99883,4.035646,-21.99739)" points="511.2,91 497.7,82.3 484.9,91.9 489,76.4 475.9,67.1 491.9,66.3 496.7,50.9 502.5,65.9 518.5,65.7 506.1,75.8 511.2,91" style="fill:#ff0000" /></g><g transform="matrix(1.026601,0,0,1.032127,-2.019471,334.84036)"><polygon d="m 519.06818,108.72801 -22.02531,-16.19344 -22.83816,15.02531 8.59468,-25.951362 -21.3473,-17.077307 27.33711,0.154617 9.64481,-25.579666 8.30058,26.04692 27.30812,1.268204 -22.20707,15.943265 z" points="519.1,106.7 497,90.5 474.2,105.6 482.8,79.6 461.5,62.5 488.8,62.7 498.4,37.1 506.7,63.2 534,64.4 511.8,80.4 519.1,106.7" style="fill:#ffffff" /><polygon d="m 511.20355,91.032508 -13.4698,-8.733191 -12.86977,9.595493 4.14336,-15.509251 -13.10283,-9.274702 16.03054,-0.852053 4.77177,-15.327575 5.76406,14.982654 16.05195,-0.19826 -12.46816,10.111842 z" transform="matrix(0.99883,0.04836373,-0.04836373,0.99883,4.035646,-21.99739)" points="511.2,91 497.7,82.3 484.9,91.9 489,76.4 475.9,67.1 491.9,66.3 496.7,50.9 502.5,65.9 518.5,65.7 506.1,75.8 511.2,91" style="fill:#ff0000" /></g></g></g></svg>