<svg xmlns="http://www.w3.org/2000/svg" width="512" height="512" viewBox="0 0 512 512"><path fill="#090" d="M-114.935.065h307.432v511.87h-307.432V.065z"/><path fill="#f00" d="M191.82 0h461.146v512H191.82V0z"/><path fill="#F6F6FB" d="M105.888 166.88H269.75V287.5H105.888V166.88z"/><ellipse fill="#F6F6FB" cx="187.929" cy="283.872" rx="81.959" ry="76.207"/><g transform="matrix(.098 0 0 .098 193.244 871.053)" fill="#f00"><path d="M-850.893-7147.04h1590.9v1171.072h-1590.9V-7147.04z"/><ellipse cx="-54.377" cy="-6011.199" rx="795.729" ry="739.871"/></g><g transform="matrix(.053 0 0 .053 190.741 590.807)" fill="#fff"><path d="M-850.895-7147.044H740.008v1171.083H-850.895v-1171.084z"/><ellipse cx="-54.37" cy="-6011.205" rx="795.723" ry="739.861"/></g><g transform="matrix(.15 0 0 .15 2979.242 -840.166)" fill="#3B3BFF"><path d="M-18871.543 7252.828h163.857v120.622h-163.857v-120.622z"/><ellipse cx="-18789.504" cy="7369.82" rx="81.96" ry="76.208"/></g><g transform="matrix(.15 0 0 .15 2979.242 -840.166)" fill="#3B3BFF"><path d="M-18694.148 7047.19h163.86v120.622h-163.86V7047.19z"/><ellipse cx="-18612.104" cy="7164.182" rx="81.96" ry="76.208"/></g><g transform="matrix(.15 0 0 .15 2979.242 -840.166)" fill="#3B3BFF"><path d="M-18512.377 7252.828h163.86v120.622h-163.86v-120.622z"/><ellipse cx="-18430.34" cy="7369.82" rx="81.963" ry="76.208"/></g><g transform="matrix(.15 0 0 .15 2979.242 -840.166)" fill="#3B3BFF"><path d="M-18694.148 7252.828h163.86v120.622h-163.86v-120.622z"/><ellipse cx="-18612.104" cy="7369.82" rx="81.96" ry="76.208"/></g><g transform="matrix(.15 0 0 .15 2979.242 -840.166)" fill="#3B3BFF"><path d="M-18694.148 7465.325h163.86v120.625h-163.86v-120.625z"/><ellipse cx="-18612.104" cy="7582.32" rx="81.96" ry="76.208"/></g></svg>