<svg xmlns="http://www.w3.org/2000/svg" width="512" height="512"><g><path fill="#fff" d="M-62 0H962v512H-62z"/><path fill="#de2918" d="M-62 341.333H962V512H-62z"/><path fill="#08399c" d="M-62 170.667H962v170.667H-62z"/><path d="M228.25 92.924c-4.02 61.622-6.32 95.39-15.706 111.014-10.147 16.78-20.018 29.067-59.61 43.86-39.594-14.793-49.465-27.08-59.612-43.86-9.385-15.624-11.687-49.392-15.705-111.014l5.85-1.97c11.78-3.592 20.57-6.48 27.07-7.763 9.31-1.97 17.223-4.197 42.243-4.72 25.02.43 32.973 2.797 42.283 4.767 6.447 1.375 15.612 4.08 27.304 7.74l5.882 1.947z" fill="#de2918"/><path d="M222.482 90.977c-3.8 61.53-6.98 89.71-11.94 103.256-9.623 23.198-24.858 35.916-57.647 48.048-32.787-12.13-48.022-24.85-57.645-48.047-4.96-13.547-8.092-41.645-11.784-103.318 11.53-3.603 20.57-6.42 27.07-7.702 9.31-1.972 17.224-4.294 42.244-4.725 25.02.43 33.027 2.753 42.337 4.725 6.5 1.283 15.727 4.1 27.365 7.764z" fill="#08399c"/><path d="M153.014 109.743l1.573 3.72 6.91.948-4.477 2.7 4.33 2.893-6.298 1.055-1.917 3.372-2.156-3.473-5.997-.85 4.08-2.956-4.2-2.69 6.637-1.016 1.514-3.7z" fill="#fc0"/><path d="M208.172 179.53l-3.83-3.025-2.767-4.553-5.42-4.7-2.826-4.752-5.42-4.85-2.654-4.75-2.882-2.326-1.903-1.83-4.896 4.292-2.67 4.663-3.325 3.014-3.654-2.854-2.762-4.864-10.255-18.208-10.258 18.208-2.762 4.864-3.654 2.854-3.326-3.015-2.67-4.664-4.895-4.293-1.903 1.83-2.882 2.327-2.653 4.75-5.42 4.85-2.825 4.75-5.42 4.702-2.768 4.553-3.82 3.097c1.983 16.878 12.744 30.1 18.607 36.15 6.544 6.353 20.034 14.85 36.53 20.477 16.542-5.506 30.22-14.125 36.762-20.477 5.864-6.05 16.625-19.273 18.62-36.222z" fill="#fff"/><path d="M169.505 83.845l1.573 3.72 6.91.948-4.477 2.7 4.33 2.892-6.297 1.055-1.917 3.372-2.156-3.473-5.996-.85 4.08-2.957-4.2-2.69 6.637-1.017 1.515-3.7z" fill="#fc0"/><path d="M136.522 83.788l1.573 3.72 6.91.948-4.477 2.7 4.33 2.892-6.298 1.055-1.917 3.372-2.156-3.473-5.996-.85 4.082-2.956-4.2-2.69 6.636-1.017 1.514-3.702z" fill="#fc0"/><path d="M199.61 202.925l-7.467.023-6.89-.513-8.344-4.092-9.407.057-8.146 3.98-6.426.567-6.424-.568-8.146-3.98-9.406-.057-8.345 4.092-6.89.513-7.56-.104-3.65-6.183.134-.14 11.17 1.846 6.888-.513 8.345-4.092 9.406.058 8.146 3.98 6.425.567 6.425-.568 8.146-3.98 9.406-.056 8.346 4.093 6.89.513 10.87-1.906.143.286-3.64 6.18z" fill="#08399c"/><path d="M113.17 212.44l7.392-.514 8.345-4.092 9.406.057 8.146 3.98 6.424.568 6.426-.568 8.146-3.98 9.406-.056 8.345 4.092 7.49.513 4.835-5.958-.164-.135-5.178 1.51-6.89-.513-8.345-4.092-9.406.057-8.147 3.978-6.425.568-6.426-.568-8.146-3.98-9.406-.056-8.345 4.092-6.89.513-5.075-1.28-.06.25 4.54 5.612z" fill="#08399c"/></g></svg>