<svg xmlns="http://www.w3.org/2000/svg" version="1" width="512" height="512"><g><path fill="#fff" d="M-69 0h768v512H-69z"/><path fill="#01017e" d="M-69 170.666h768V512H-69z"/><path fill="#fe0101" d="M-69 341.334h768V512H-69z"/><path d="M64.736 116.2v143.57c9.833 56.05 35.893 113.086 123.903 142.094 87.518-29.008 115.543-83.585 125.868-143.078V116.2H64.736z" fill="#fff"/><path d="M74.57 127.51v125.376c8.85 45.726 26.06 108.17 114.07 137.178 87.518-29.01 107.677-91.452 115.543-137.178V127.51H74.57z" fill="#fe0101"/><path d="M202.406 203.227v20.16h40.318c5.405 0 10.49-2.624 15.733-3.935v37.86c-5.408-1.148-10.696-3.442-16.225-3.442h-39.334v46.217l-27.043-.983V253.87h-38.35c-5.764 0-11.145 2.95-16.717 4.424v-40.317c5.244 1.64 10.24 4.917 15.733 4.917h39.335v-20.16h-29.008c-5.084 0-9.506 3.607-14.26 5.41v-38.35c5.41 2.294 10.35 6.882 16.226 6.882h27.534v-17.21c0-8.037-4.59-15.405-6.884-23.108h38.843c-1.967 7.867-5.9 15.492-5.9 23.6v16.718h26.06c6.798 0 13.11-3.605 19.666-5.408v37.86c-5.9-1.967-11.48-5.9-17.7-5.9h-28.026z" fill="#fff"/><path d="M152.746 305.496c-23.11-11.555-45.184-5.102-55.744 13.398 16.41 31.344 47.632 56.665 91.637 71.17 43.76-14.505 75.594-39.826 93.05-69.695-13.598-25.94-39.458-22.496-56.175-14.382-11.8-29.01-59.985-27.534-72.77-.492z" fill="#01017e"/></g></svg>