<svg xmlns="http://www.w3.org/2000/svg" width="512" height="512"><g><path fill="#f31930" d="M0 0h512v512H0z"/><g><path d="M448.828 228.365" stroke="#000" /><path d="M348.847 263.768c0 70.58-58.278 127.798-130.167 127.798-71.89 0-130.168-57.217-130.168-127.798 0-70.58 58.278-127.798 130.168-127.798 71.89 0 130.167 57.217 130.167 127.798z" fill="#fff"/><path d="M355.283 264.015c0 56.514-46.602 102.327-104.087 102.327-57.486 0-104.088-45.813-104.088-102.327 0-56.514 46.602-102.327 104.088-102.327 57.485 0 104.087 45.813 104.087 102.327z" fill="#f31830"/><path d="M374.1 204.234l-1.05 47.273-44.102 11.973 43.473 15.482-1.05 43.35 28.353-33.854 42.842 14.863-24.78-36.33 30.24-36.127-46.412 12.8-27.512-39.43z" fill="#fff"/></g></g></svg>