<svg xmlns="http://www.w3.org/2000/svg" width="512" height="512"><g><g><g fill="#bd3d44"><path d="M0 0h972.8v39.385H0z"/><path d="M0 78.77h972.8v39.384H0z"/><path d="M0 157.538h972.8v39.385H0z"/><path d="M0 236.308h972.8v39.384H0z"/><path d="M0 315.077h972.8v39.385H0z"/><path d="M0 393.846h972.8v39.385H0z"/><path d="M0 472.615h972.8V512H0z"/></g><g fill="#fff"><path d="M0 39.385h972.8V78.77H0z"/><path d="M0 118.154h972.8v39.384H0z"/><path d="M0 196.923h972.8v39.385H0z"/><path d="M0 275.692h972.8v39.385H0z"/><path d="M0 354.462h972.8v39.384H0z"/><path d="M0 433.23h972.8v39.385H0z"/></g></g><path fill="#192f5d" d="M0 0h389.12v275.692H0z"/><g fill="#fff"><g><g><path d="M32.427 11.8l3.54 10.896h11.456l-9.268 6.734 3.54 10.895-9.268-6.733-9.268 6.733L26.7 29.43l-9.27-6.734h11.457l3.54-10.895z"/><path d="M97.28 11.8l3.54 10.896h11.456l-9.268 6.734 3.54 10.895-9.268-6.733-9.268 6.733 3.54-10.895-9.268-6.734H93.74L97.28 11.8z"/><path d="M162.133 11.8l3.54 10.896h11.456l-9.27 6.734 3.54 10.895-9.267-6.733-9.268 6.733 3.54-10.895-9.268-6.734h11.456l3.54-10.895z"/><path d="M226.987 11.8l3.54 10.896h11.456l-9.268 6.734 3.54 10.895-9.268-6.733-9.268 6.733 3.54-10.895-9.27-6.734h11.457l3.54-10.895z"/><path d="M291.84 11.8l3.54 10.896h11.456l-9.268 6.734 3.54 10.895-9.268-6.733-9.268 6.733 3.54-10.895-9.268-6.734H288.3l3.54-10.895z"/><path d="M356.693 11.8l3.54 10.896h11.456l-9.27 6.734 3.54 10.895-9.267-6.733-9.268 6.733 3.54-10.895-9.268-6.734h11.456l3.54-10.895z"/></g><g><path d="M64.853 39.37l3.54 10.895H79.85L70.58 57l3.54 10.894-9.267-6.733-9.268 6.734L59.125 57l-9.268-6.735h11.456l3.54-10.895z"/><path d="M129.707 39.37l3.54 10.895h11.456L135.435 57l3.54 10.894-9.268-6.733-9.268 6.734L123.98 57l-9.27-6.735h11.457l3.54-10.895z"/><path d="M194.56 39.37l3.54 10.895h11.456L200.288 57l3.54 10.894-9.268-6.733-9.268 6.734L188.832 57l-9.268-6.735h11.456l3.54-10.895z"/><path d="M259.413 39.37l3.54 10.895h11.456L265.14 57l3.54 10.894-9.267-6.733-9.268 6.734L253.685 57l-9.268-6.735h11.456l3.54-10.895z"/><path d="M324.267 39.37l3.54 10.895h11.456L329.995 57l3.54 10.894-9.268-6.733L315 67.895 318.54 57l-9.27-6.735h11.457l3.54-10.895z"/></g></g><g><g><path d="M32.423 66.936l3.54 10.895H47.42l-9.27 6.735 3.54 10.895-9.267-6.733-9.268 6.733 3.54-10.895-9.268-6.734h11.456l3.54-10.894z"/><path d="M97.27 66.936l3.54 10.895h11.455l-9.268 6.735 3.54 10.895-9.268-6.733L88 95.46l3.54-10.895-9.267-6.734H93.73l3.54-10.894z"/><path d="M162.114 66.936l3.54 10.895h11.456l-9.268 6.735 3.54 10.895-9.268-6.733-9.268 6.733 3.54-10.895-9.268-6.734h11.456l3.54-10.894z"/><path d="M226.96 66.936l3.54 10.895h11.456l-9.268 6.735 3.54 10.895-9.268-6.733-9.268 6.733 3.54-10.895-9.268-6.734h11.456l3.54-10.894z"/><path d="M291.806 66.936l3.54 10.895h11.456l-9.268 6.735 3.54 10.895-9.268-6.733-9.268 6.733 3.54-10.895-9.268-6.734h11.456l3.54-10.894z"/><path d="M356.652 66.936l3.54 10.895h11.456l-9.268 6.735 3.54 10.895-9.268-6.733-9.268 6.733 3.54-10.895-9.268-6.734h11.456l3.54-10.894z"/></g><g><path d="M64.846 94.502l3.54 10.895h11.456l-9.268 6.734 3.54 10.896-9.268-6.733-9.268 6.733 3.54-10.895-9.268-6.733h11.456l3.54-10.895z"/><path d="M129.69 94.502l3.54 10.895h11.457l-9.268 6.734 3.54 10.896-9.27-6.733-9.267 6.733 3.54-10.895-9.268-6.733h11.456l3.54-10.895z"/><path d="M194.537 94.502l3.54 10.895h11.456l-9.268 6.734 3.54 10.896-9.268-6.733-9.268 6.733 3.54-10.895-9.27-6.733h11.457l3.54-10.895z"/><path d="M259.383 94.502l3.54 10.895h11.456l-9.27 6.734 3.54 10.896-9.267-6.733-9.268 6.733 3.54-10.895-9.268-6.733h11.456l3.54-10.895z"/><path d="M324.23 94.502l3.54 10.895h11.455l-9.268 6.734 3.54 10.896-9.268-6.733-9.27 6.733 3.54-10.895-9.267-6.733h11.456l3.54-10.895z"/></g></g><g><g><path d="M32.423 122.075l3.54 10.895H47.42l-9.27 6.734 3.54 10.895-9.267-6.734-9.268 6.733 3.54-10.896-9.268-6.734h11.456l3.54-10.895z"/><path d="M97.27 122.075l3.54 10.895h11.455l-9.268 6.734 3.54 10.895-9.268-6.734L88 150.6l3.54-10.896-9.267-6.734H93.73l3.54-10.895z"/><path d="M162.114 122.075l3.54 10.895h11.456l-9.268 6.734 3.54 10.895-9.268-6.734-9.268 6.733 3.54-10.896-9.268-6.734h11.456l3.54-10.895z"/><path d="M226.96 122.075l3.54 10.895h11.456l-9.268 6.734 3.54 10.895-9.268-6.734-9.268 6.733 3.54-10.896-9.268-6.734h11.456l3.54-10.895z"/><path d="M291.806 122.075l3.54 10.895h11.456l-9.268 6.734 3.54 10.895-9.268-6.734-9.268 6.733 3.54-10.896-9.268-6.734h11.456l3.54-10.895z"/><path d="M356.652 122.075l3.54 10.895h11.456l-9.268 6.734 3.54 10.895-9.268-6.734-9.268 6.733 3.54-10.896-9.268-6.734h11.456l3.54-10.895z"/></g><g><path d="M64.846 149.64l3.54 10.896h11.456l-9.268 6.734 3.54 10.895-9.268-6.733-9.268 6.733 3.54-10.895-9.268-6.734h11.456l3.54-10.895z"/><path d="M129.69 149.64l3.54 10.896h11.457l-9.268 6.734 3.54 10.895-9.27-6.733-9.267 6.733 3.54-10.895-9.268-6.734h11.456l3.54-10.895z"/><path d="M194.537 149.64l3.54 10.896h11.456l-9.268 6.734 3.54 10.895-9.268-6.733-9.268 6.733 3.54-10.895-9.27-6.734h11.457l3.54-10.895z"/><path d="M259.383 149.64l3.54 10.896h11.456l-9.27 6.734 3.54 10.895-9.267-6.733-9.268 6.733 3.54-10.895-9.268-6.734h11.456l3.54-10.895z"/><path d="M324.23 149.64l3.54 10.896h11.455l-9.268 6.734 3.54 10.895-9.268-6.733-9.27 6.733 3.54-10.895-9.267-6.734h11.456l3.54-10.895z"/></g></g><g><g><path d="M32.423 177.213l3.54 10.895H47.42l-9.27 6.734 3.54 10.895-9.267-6.733-9.268 6.733 3.54-10.895-9.268-6.734h11.456l3.54-10.895z"/><path d="M97.27 177.213l3.54 10.895h11.455l-9.268 6.734 3.54 10.895-9.268-6.733-9.27 6.733 3.54-10.895-9.267-6.734H93.73l3.54-10.895z"/><path d="M162.114 177.213l3.54 10.895h11.456l-9.268 6.734 3.54 10.895-9.268-6.733-9.268 6.733 3.54-10.895-9.268-6.734h11.456l3.54-10.895z"/><path d="M226.96 177.213l3.54 10.895h11.456l-9.268 6.734 3.54 10.895-9.268-6.733-9.268 6.733 3.54-10.895-9.268-6.734h11.456l3.54-10.895z"/><path d="M291.806 177.213l3.54 10.895h11.456l-9.268 6.734 3.54 10.895-9.268-6.733-9.268 6.733 3.54-10.895-9.268-6.734h11.456l3.54-10.895z"/><path d="M356.652 177.213l3.54 10.895h11.456l-9.268 6.734 3.54 10.895-9.268-6.733-9.268 6.733 3.54-10.895-9.268-6.734h11.456l3.54-10.895z"/></g><g><path d="M64.846 204.78l3.54 10.894h11.456l-9.268 6.734 3.54 10.895-9.268-6.733-9.268 6.733 3.54-10.895-9.268-6.734h11.456l3.54-10.895z"/><path d="M129.69 204.78l3.54 10.894h11.457l-9.268 6.734 3.54 10.895-9.27-6.733-9.267 6.733 3.54-10.895-9.268-6.734h11.456l3.54-10.895z"/><path d="M194.537 204.78l3.54 10.894h11.456l-9.268 6.734 3.54 10.895-9.268-6.733-9.268 6.733 3.54-10.895-9.27-6.734h11.457l3.54-10.895z"/><path d="M259.383 204.78l3.54 10.894h11.456l-9.27 6.734 3.54 10.895-9.267-6.733-9.268 6.733 3.54-10.895-9.268-6.734h11.456l3.54-10.895z"/><path d="M324.23 204.78l3.54 10.894h11.455l-9.268 6.734 3.54 10.895-9.268-6.733-9.27 6.733 3.54-10.895-9.267-6.734h11.456l3.54-10.895z"/></g></g><g><path d="M32.423 232.352l3.54 10.895H47.42l-9.27 6.734 3.54 10.896-9.267-6.733-9.268 6.733 3.54-10.895-9.268-6.733h11.456l3.54-10.895z"/><path d="M97.27 232.352l3.54 10.895h11.455l-9.268 6.734 3.54 10.896-9.268-6.733-9.27 6.733 3.54-10.895-9.267-6.733H93.73l3.54-10.895z"/><path d="M162.114 232.352l3.54 10.895h11.456l-9.268 6.734 3.54 10.896-9.268-6.733-9.268 6.733 3.54-10.895-9.268-6.733h11.456l3.54-10.895z"/><path d="M226.96 232.352l3.54 10.895h11.456l-9.268 6.734 3.54 10.896-9.268-6.733-9.268 6.733 3.54-10.895-9.268-6.733h11.456l3.54-10.895z"/><path d="M291.806 232.352l3.54 10.895h11.456l-9.268 6.734 3.54 10.896-9.268-6.733-9.268 6.733 3.54-10.895-9.268-6.733h11.456l3.54-10.895z"/><path d="M356.652 232.352l3.54 10.895h11.456l-9.268 6.734 3.54 10.896-9.268-6.733-9.268 6.733 3.54-10.895-9.268-6.733h11.456l3.54-10.895z"/></g></g></g></svg>