<svg xmlns="http://www.w3.org/2000/svg" version="1" width="512" height="512"><g><path fill="#dc0000" d="M-128 341.333h769.456V512H-128z"/><path fill="#ffcb00" d="M-128 0h769.456v170.667H-128z"/><path fill="#0000ba" d="M-128 170.667h769.456v170.667H-128z"/><g fill="#fff"><path d="M269.557 228.933l-12.396-8.86-12.335 8.947 4.588-14.537-12.312-8.977 15.233-.125 4.725-14.493 4.826 14.46 15.233.02-12.25 9.06 4.69 14.506z"/><path d="M331.248 236.516l-12.396-8.86-12.336 8.947 4.588-14.537-12.312-8.977 15.232-.126 4.725-14.494 4.825 14.46 15.233.02-12.25 9.06 4.69 14.506z"/><path d="M384.713 269.882l-12.396-8.86-12.336 8.947 4.59-14.538-12.313-8.977 15.232-.125 4.724-14.494 4.826 14.46 15.233.02-12.25 9.06 4.69 14.506z"/><path d="M414.873 319.93l-12.396-8.858-12.336 8.946 4.59-14.537-12.313-8.976 15.232-.125 4.724-14.495 4.826 14.46 15.233.02-12.25 9.06 4.69 14.506z"/><path d="M183.02 236.516l12.397-8.86 12.336 8.947-4.588-14.537 12.312-8.977-15.232-.126-4.725-14.494-4.826 14.46-15.233.02 12.25 9.06-4.69 14.506z"/><path d="M129.556 269.882l12.396-8.86 12.336 8.947-4.588-14.538 12.312-8.977-15.232-.125-4.725-14.494-4.826 14.46-15.234.02 12.25 9.06-4.69 14.506z"/><path d="M99.396 319.93l12.396-8.858 12.336 8.946-4.588-14.537 12.312-8.976-15.232-.125-4.725-14.495-4.826 14.46-15.234.02 12.25 9.06-4.69 14.506z"/></g></g></svg>