<svg xmlns="http://www.w3.org/2000/svg" version="1" width="512" height="512"><g><path d="M-71.867 407.394v-303.36l225.85 151.597-225.85 151.764z"/><path d="M82.232 511.604l253.56-170.61h360.402v170.61H82.232z" fill="#00c"/><path d="M65.945-.3l630.25.013v170.64H335.79S69.325-1.988 65.946-.3z" fill="#f00"/><path d="M-71.867 63.713v40.32l225.85 151.598-225.85 151.764v40.32L212.598 255.63-71.867 63.714z" fill="#fc0"/><path d="M-71.867 63.713v-64h94.9l301.34 203.84h371.82v104.24h-371.82l-301.34 203.81h-94.9v-63.89L212.598 255.63-71.867 63.714z" fill="#093"/><path d="M23.033-.287h59.2l253.558 170.64h360.404v33.2h-371.82L23.034-.288z" fill="#fff"/><path d="M23.033 511.604h59.2l253.558-170.61h360.404v-33.2h-371.82l-301.34 203.81z" fill="#fff"/></g></svg>